<?xml version="1.0"?>
<svg xmlns="http://www.w3.org/2000/svg" height="512px" viewBox="0 0 512.00001 512" width="512px" class=""><g><path d="m191.730469 206.730469h25.917969l27.742187 27.738281c5.859375 5.859375 15.359375 5.859375 21.21875 0l27.742187-27.738281h25.917969c26.03125 0 47.128907-21.101563 47.128907-47.128907v-112.472656c0-26.027344-21.058594-47.128906-47.128907-47.128906h-128.539062c-26.03125 0-47.128907 21.058594-47.128907 47.128906v112.472656c0 26.027344 21.097657 47.128907 47.128907 47.128907zm16.488281-142.460938h95.980469c8.519531 0 15.390625 7.109375 14.980469 15.71875-.378907 8.070313-7.328126 14.28125-15.398438 14.28125h-95.980469c-8.519531 0-15.390625-7.109375-14.980469-15.730469.378907-8.070312 7.328126-14.269531 15.398438-14.269531zm0 48.199219h47.78125c8.519531 0 15.390625 7.109375 14.980469 15.722656-.378907 8.070313-7.332031 14.277344-15.402344 14.277344h-47.777344c-8.519531 0-15.390625-7.109375-14.980469-15.730469.378907-8.066406 7.328126-14.269531 15.398438-14.269531zm0 0" data-original="#000000" class="active-path" data-old_color="#000000" fill="#0075A2"/><path d="m131.730469 336.328125h-21.402344v-72.296875c0-30.671875-24.96875-55.492188-55.769531-55.160156-30.359375.320312-54.558594 25.609375-54.558594 55.980468v79.519532c0 39.339844 31.890625 71.230468 71.230469 71.230468h39.097656v81.398438c0 8.28125 6.722656 15 15 15h21.402344v-160.671875c0-8.277344-6.710938-15-15-15zm0 0" data-original="#000000" class="active-path" data-old_color="#000000" fill="#0075A2"/><path d="m320.269531 273.128906h-128.539062c-8.28125 0-15 6.722656-15 15v223.871094h158.539062v-223.871094c0-8.277344-6.71875-15-15-15zm0 0" data-original="#000000" class="active-path" data-old_color="#000000" fill="#0075A2"/><path d="m110.335938 143.53125c0 30.46875-24.699219 55.167969-55.167969 55.167969s-55.167969-24.699219-55.167969-55.167969c0-30.464844 24.699219-55.164062 55.167969-55.164062s55.167969 24.699218 55.167969 55.164062zm0 0" data-original="#000000" class="active-path" data-old_color="#000000" fill="#0075A2"/><path d="m512 143.53125c0 30.46875-24.699219 55.167969-55.167969 55.167969s-55.167969-24.699219-55.167969-55.167969c0-30.464844 24.699219-55.164062 55.167969-55.164062s55.167969 24.699218 55.167969 55.164062zm0 0" data-original="#000000" class="active-path" data-old_color="#000000" fill="#0075A2"/><path d="m380.269531 336.328125h21.402344v-72.296875c0-30.671875 24.96875-55.492188 55.769531-55.160156 30.359375.320312 54.558594 25.609375 54.558594 55.980468v79.519532c0 39.339844-31.890625 71.230468-71.230469 71.230468h-39.097656v81.398438c0 8.28125-6.722656 15-15 15h-21.402344v-160.671875c0-8.277344 6.710938-15 15-15zm0 0" data-original="#000000" class="active-path" data-old_color="#000000" fill="#0075A2"/><style id="stylish-11" class="stylish active-path" type="text/css" style="fill:#0075A2" data-old_color="#000000">/* i really want this to be global */

div .js-list.list-wrapper:nth-last-child(2) {
    background-color: red;
    opacity: .3;
}</style></g> </svg>
